<svg xmlns="http://www.w3.org/2000/svg" xmlns:xlink="http://www.w3.org/1999/xlink" viewBox="0 0 17.2 17.2"><defs><style>.cls-1{fill:url(#linear-gradient);}.cls-2{fill:#fff;}</style><linearGradient id="linear-gradient" y1="8.6" x2="17.2" y2="8.6" gradientUnits="userSpaceOnUse"><stop offset="0" stop-color="#2088c3"/><stop offset="0.33" stop-color="#2088d9"/><stop offset="0.73" stop-color="#2088ee"/><stop offset="1" stop-color="#2088f6"/></linearGradient></defs><title>Active building</title><g id="Layer_2" data-name="Layer 2"><g id="Flow"><circle class="cls-1" cx="8.6" cy="8.6" r="8.6"/><path class="cls-2" d="M11.64,4.82a2.22,2.22,0,0,0-.93-.14c0-.3,0-.59,0-.89A1.36,1.36,0,0,0,9.44,2.35C8.61,2.22,7.77,2.09,6.93,2A1.4,1.4,0,0,0,5.28,3.72c.12,1,.21,2.1.31,3.15a1.74,1.74,0,0,0-.88,1.34c-.1,1.55-.22,3.11-.28,4.66a1.47,1.47,0,0,0,1.5,1.55c.68,0,1.35,0,2,0a1.49,1.49,0,0,0,1.47-1h0l1.21,0A1.3,1.3,0,0,0,12,12.19c.17-2,.31-4.07.45-6.1A1.27,1.27,0,0,0,11.64,4.82ZM5.83,3.6c-.06-.82.35-1.16,1.16-1,.66.1,1.32.2,2,.27,1,.12,1.2.34,1.21,1.36v.52h0c-.63.1-1.24.22-1.87.31A1.42,1.42,0,0,0,6.94,6.75H6.17C6.05,5.7,5.92,4.65,5.83,3.6Zm1.54,8a.88.88,0,0,1,.06.26.88.88,0,0,0-.06-.26c-.61-.08-.8-.48-.85-1-.1-1.08-.22-2.15-.34-3.22H7Zm1.23,2a5.19,5.19,0,0,1-3.19,0A.94.94,0,0,1,5,12.81c.09-1.51.17-3,.26-4.54a.84.84,0,0,1,.42-.72c.11,1.07.21,2.13.34,3.19S6.45,12,7.42,12.17c0-.1,0-.19,0-.28,0,.09,0,.18,0,.28A1.56,1.56,0,0,0,8.8,13.44h0A2,2,0,0,1,8.6,13.65Zm-1-6.29c1,0,1.37.28,1.37,1.33v2.92H8C7.85,10.2,7.71,8.78,7.57,7.36Zm1.36,5.51c-.46,0-.82-.21-.9-.73H8l.91,0A1.73,1.73,0,0,1,8.93,12.87ZM7.5,6.76c-.08-.76.13-1,.87-1.18s1.21-.16,1.81-.24h0c0,1.72,0,3.44,0,5.17a.91.91,0,0,1-.65,1c0-.86,0-1.72,0-2.58C9.51,7.33,9.13,6.9,7.5,6.76Zm3.95,5.12a.93.93,0,0,1-1,1H9.54a2.23,2.23,0,0,1,0,.36,2.23,2.23,0,0,0,0-.36c0-.26,0-.51,0-.77a1.3,1.3,0,0,0,1.15-1.41c0-1.8,0-3.6,0-5.41.74-.17,1.18.16,1.14.9C11.73,8.08,11.59,10,11.45,11.88Z"/></g></g></svg>