<svg xmlns="http://www.w3.org/2000/svg" xmlns:xlink="http://www.w3.org/1999/xlink" viewBox="0 0 17.2 17.2"><defs><style>.cls-1{fill:url(#linear-gradient);}.cls-2{fill:#fff;}.cls-3{fill:#00bce8;}</style><linearGradient id="linear-gradient" y1="8.6" x2="17.2" y2="8.6" gradientUnits="userSpaceOnUse"><stop offset="0" stop-color="#044893"/><stop offset="1" stop-color="#0a456d"/></linearGradient></defs><title>agile</title><g id="Layer_2" data-name="Layer 2"><g id="Flow"><circle class="cls-1" cx="8.6" cy="8.6" r="8.6"/><path class="cls-2" d="M11.89,11.07H13v-.49l1.1,1.1L13,12.77v-.48H10.35A5.07,5.07,0,0,0,11.89,11.07Z"/><path class="cls-2" d="M7.63,4.65a3.22,3.22,0,0,0-1.34,5.87H4.54a4.43,4.43,0,0,1,3-7.08L7,4Z"/><path class="cls-3" d="M3.7,11.68l-.6-.61h5a3.22,3.22,0,0,0,.54-6.4v.44L7.54,4,8.63,2.92v.52a4.44,4.44,0,0,1-.54,8.85h-5Z"/></g></g></svg>