<svg xmlns="http://www.w3.org/2000/svg" xmlns:xlink="http://www.w3.org/1999/xlink" viewBox="0 0 17.2 17.2"><defs><style>.cls-1{fill:url(#linear-gradient);}.cls-2{fill:#fff;}</style><linearGradient id="linear-gradient" y1="8.6" x2="17.2" y2="8.6" gradientUnits="userSpaceOnUse"><stop offset="0" stop-color="#044893"/><stop offset="1" stop-color="#0a456d"/></linearGradient></defs><title>BPM</title><g id="Layer_2" data-name="Layer 2"><g id="Flow"><circle class="cls-1" cx="8.6" cy="8.6" r="8.6"/><path class="cls-2" d="M8.64,8.23h0V7.55a1.24,1.24,0,0,1,.52.21l.24-.34a1.57,1.57,0,0,0-.76-.28V7H8.4v.18a.76.76,0,0,0-.8.73c0,.48.31.62.8.74v.71A1.35,1.35,0,0,1,7.77,9l-.26.32a1.56,1.56,0,0,0,.89.39V10h.23V9.71A.77.77,0,0,0,9.46,9C9.46,8.51,9.12,8.35,8.64,8.23ZM8.4,8.17C8.19,8.1,8,8,8,7.84s.17-.29.36-.31Zm.23,1.17V8.69c.21.06.37.13.37.34S8.84,9.3,8.63,9.34Z"/><path class="cls-2" d="M13.52,7.31H12.37a4,4,0,0,0-.43-1l.82-.81a.17.17,0,0,0,0-.23L11.55,4a.14.14,0,0,0-.22,0l-.82.83a3.49,3.49,0,0,0-1-.42V3.28a.17.17,0,0,0-.16-.17H7.64a.16.16,0,0,0-.17.17V4.43a4.48,4.48,0,0,0-1,.42L5.64,4a.17.17,0,0,0-.12,0,.16.16,0,0,0-.11,0L4.21,5.23a.14.14,0,0,0,0,.22L5,6.27a4.14,4.14,0,0,0-.42,1H3.44a.16.16,0,0,0-.16.16V9.14a.15.15,0,0,0,.16.16H4.6a4.37,4.37,0,0,0,.42,1l-.81.81a.15.15,0,0,0,0,.23l1.2,1.2a.15.15,0,0,0,.23,0l.81-.81a4.48,4.48,0,0,0,1,.42v1.17a.17.17,0,0,0,.17.16H9.33a.17.17,0,0,0,.16-.16V12.2a3.81,3.81,0,0,0,1-.43l.82.82a.15.15,0,0,0,.22,0l1.21-1.21a.16.16,0,0,0,0-.22l-.82-.82a3.81,3.81,0,0,0,.43-1h1.15a.15.15,0,0,0,.16-.16V7.47A.15.15,0,0,0,13.52,7.31Zm-3.07,2.84A2.58,2.58,0,1,1,8.92,5.94,2.56,2.56,0,0,1,10.45,10.15Z"/><path class="cls-2" d="M8.64,8.23h0V7.55a1.24,1.24,0,0,1,.52.21l.24-.34a1.57,1.57,0,0,0-.76-.28V7H8.4v.18a.76.76,0,0,0-.8.73c0,.48.31.62.8.74v.71A1.35,1.35,0,0,1,7.77,9l-.26.32a1.56,1.56,0,0,0,.89.39V10h.23V9.71A.77.77,0,0,0,9.46,9C9.46,8.51,9.12,8.35,8.64,8.23ZM8.4,8.17C8.19,8.1,8,8,8,7.84s.17-.29.36-.31Zm.23,1.17V8.69c.21.06.37.13.37.34S8.84,9.3,8.63,9.34Z"/></g></g></svg>